<svg width="598" height="105" viewBox="0 0 598 105" fill="none" xmlns="http://www.w3.org/2000/svg">
<path d="M18.0401 100.806C5.87351 100.806 0 94.9342 0 83.1906L0.419536 18.6009C0.419536 6.43786 6.71258 0.146659 18.8791 0.566072H62.9304V25.7309L27.6894 25.3115C25.1722 25.3115 23.9136 26.5697 23.494 29.0862L23.0745 71.0276C23.0745 73.5441 24.3331 74.8023 26.8503 75.2217L62.5109 75.6412V100.806H18.0401Z" fill="#F48619"/>
<path d="M88.5222 101.225C76.3557 101.225 70.4822 95.3536 70.4822 83.6101L70.9017 19.0203C70.9017 6.8573 77.1948 0.566092 89.3613 0.985506L125.861 1.40492C138.028 1.40492 143.901 7.69613 143.901 19.8591L143.481 84.4489C143.481 96.1925 137.188 102.064 125.022 102.064L88.5222 101.225ZM120.827 30.3445C120.827 27.828 119.568 26.5698 117.051 26.1503H98.1716C95.6543 26.1503 94.3957 27.4086 93.9762 29.9251L93.5567 71.8665C93.5567 74.383 94.8153 75.6412 97.3325 76.0606H116.212C118.729 76.0606 119.987 74.8024 120.407 72.2859L120.827 30.3445Z" fill="#F48619"/>
<path d="M229.486 102.484L229.906 51.315L215.222 102.484H192.148L178.303 50.8956L177.883 102.064H154.389L155.228 1.40479L187.113 1.8242L204.314 68.0916L221.515 1.8242L253.4 2.24362L252.561 102.903L229.486 102.484Z" fill="#F48619"/>
<path d="M264.308 102.484L265.147 1.82422L319.687 2.24363C331.853 2.24363 337.727 8.53483 337.727 21.1173L337.307 47.9597C337.307 59.7033 331.014 65.1557 319.267 65.1557L287.382 64.7363L286.963 102.484H264.308ZM314.652 31.6026C314.652 29.0861 313.394 27.8279 310.876 27.4085H287.802V42.5074H310.876C313.394 42.5074 314.652 41.2491 315.072 38.7326L314.652 31.6026Z" fill="#F48619"/>
<path d="M398.979 103.742L399.399 62.6393L369.192 62.2199L368.772 103.322H346.117L346.956 20.2785C346.956 8.53488 353.25 2.66309 365.416 2.66309L404.433 3.08249C416.6 3.08249 422.893 8.95429 422.893 20.6979L422.053 103.742H398.979ZM399.399 31.6026C399.399 29.0862 398.14 27.8279 395.623 27.4085H372.968C370.451 27.4085 369.192 28.6667 368.772 31.1832V40.8297L398.979 41.2492L399.399 31.6026Z" fill="#F48619"/>
<path d="M490.857 104.581L456.455 51.3152L456.036 104.581H432.961L433.8 3.92139H455.616L487.081 56.7675L487.501 4.3408H510.576L509.736 105L490.857 104.581Z" fill="#F48619"/>
<path d="M544.138 105L544.558 60.9617L517.288 4.34082H543.719L557.983 36.2163L573.506 4.34082H597.839L568.891 60.5423L568.471 104.581L544.138 105Z" fill="#F48619"/>
</svg>
