<svg width="493" height="104" viewBox="0 0 493 104" fill="none" xmlns="http://www.w3.org/2000/svg">
<path d="M72.6255 100.24C112.247 100.24 144.366 78.4578 144.366 51.5881C144.366 24.7183 112.247 2.93604 72.6255 2.93604C33.0042 2.93604 0.884766 24.7183 0.884766 51.5881C0.884766 78.4578 33.0042 100.24 72.6255 100.24Z" fill="#231F20"/>
<path d="M38.2236 65.0091C41.9308 65.0091 44.9361 62.0047 44.9361 58.2985C44.9361 54.5923 41.9308 51.5879 38.2236 51.5879C34.5163 51.5879 31.511 54.5923 31.511 58.2985C31.511 62.0047 34.5163 65.0091 38.2236 65.0091Z" fill="#F48619"/>
<path d="M110.384 50.3295C107.027 47.3936 101.573 47.813 98.2171 51.1683L90.6655 59.5566C84.792 59.976 84.792 55.3625 84.792 54.5237L105.349 30.6171C108.286 27.2617 107.866 21.8094 104.51 18.4541C101.154 15.5182 95.6999 15.9376 92.3436 19.2929L71.3668 43.1995C65.4933 43.6189 65.9128 39.0053 65.9128 38.1665L73.884 31.0365C76.8208 27.6812 76.4012 22.2288 73.045 18.8735C69.6887 15.9376 64.2347 16.357 60.8784 19.7123L44.097 39.0053C41.1602 42.3606 41.5797 47.813 44.936 51.1683C48.2923 54.1042 53.7463 53.6848 57.1026 50.3295L62.9761 43.1995C64.2347 43.1995 68.0105 42.3606 68.4301 48.2324L47.8728 71.7196C44.936 75.4943 45.3556 80.9467 48.7119 83.8826C52.0681 86.8185 57.5221 86.3991 60.8784 83.0438L81.4357 59.1372C82.6943 58.7178 86.8897 58.2984 86.8897 64.1702L81.4357 70.4614C78.4989 73.8167 78.9185 79.2691 82.2748 82.6244C85.631 85.5603 91.085 85.1409 94.4413 81.7856L111.223 62.4925C114.579 59.1372 114.16 53.6848 110.384 50.3295Z" fill="white"/>
<path d="M156.952 100.659L157.791 0L219.463 0.419414V25.1648H180.446V39.4249L209.394 39.8443V62.0733L180.446 61.6538L180.027 100.659H156.952Z" fill="#231F20"/>
<path d="M226.595 101.079L227.434 0.419434H250.509L249.67 101.079H226.595Z" fill="#231F20"/>
<path d="M311.761 101.498C311.761 101.079 311.342 100.24 311.342 99.4012C311.342 98.5623 311.342 97.7235 311.342 96.4653L311.761 66.2675C311.761 63.751 310.503 62.4927 307.985 62.0733H284.911L284.491 101.918H261.417L262.256 1.2583L316.376 1.67771C328.543 1.67771 334.416 7.96892 334.416 20.5513V36.4891C334.416 45.7162 330.64 50.7491 323.089 52.0074C326.864 52.8462 329.801 54.5239 331.899 57.0404C333.577 59.5568 334.416 62.4927 334.416 66.6869L333.997 96.4653C333.997 98.1429 333.997 99.4012 333.997 100.24C333.997 101.079 334.416 101.918 334.416 102.337L311.761 101.498ZM311.342 29.7784C311.342 27.262 310.083 26.0037 307.566 25.5843H284.491V40.6832H307.566C310.083 40.6832 311.342 39.425 311.761 36.9085L311.342 29.7784Z" fill="#231F20"/>
<path d="M344.485 101.918V76.7528L389.375 77.1722C391.892 77.1722 393.151 75.914 393.571 73.3975V66.6869C393.571 64.1704 392.312 62.9121 389.795 62.4927L362.944 62.0733C350.778 62.0733 344.485 56.2015 344.485 44.4579V20.5513C344.485 7.96892 350.778 1.2583 362.525 1.67772L414.547 2.09713V27.262L371.755 26.8425C369.237 26.8425 367.979 28.1008 367.559 30.6173V36.9085C367.559 39.425 368.818 40.6832 371.335 41.1026L399.025 41.522C410.772 41.522 416.645 47.3938 416.645 59.5568V83.044C416.645 96.0458 409.932 102.756 397.346 102.337L344.485 101.918Z" fill="#231F20"/>
<path d="M446.432 102.757L447.271 27.6814H424.197V2.5166L493.001 2.93602V28.1008H469.926L469.507 103.176L446.432 102.757Z" fill="#231F20"/>
</svg>
