<svg width="181" height="69" viewBox="0 0 181 69" fill="none" xmlns="http://www.w3.org/2000/svg">
<path d="M31.2865 30.2033C43.2489 30.2033 52.9463 23.6401 52.9463 15.544C52.9463 7.44785 43.2489 0.884644 31.2865 0.884644C19.3241 0.884644 9.62671 7.44785 9.62671 15.544C9.62671 23.6401 19.3241 30.2033 31.2865 30.2033Z" fill="#231F20"/>
<path d="M20.8997 19.5879C22.019 19.5879 22.9263 18.6826 22.9263 17.5659C22.9263 16.4492 22.019 15.5439 20.8997 15.5439C19.7804 15.5439 18.873 16.4492 18.873 17.5659C18.873 18.6826 19.7804 19.5879 20.8997 19.5879Z" fill="#F48619"/>
<path d="M42.6858 15.165C41.6724 14.2804 40.0258 14.4067 39.0125 15.4177L36.7325 17.9452C34.9592 18.0716 34.9592 16.6815 34.9592 16.4287L41.1658 9.22543C42.0524 8.21444 41.9258 6.57158 40.9125 5.56059C39.8991 4.67598 38.2525 4.80235 37.2392 5.81334L30.9059 13.0166C29.1326 13.143 29.2592 11.7529 29.2592 11.5002L31.2859 9.09906C32.1725 8.08807 32.0459 6.44521 31.0326 5.43422C30.0192 4.54961 28.3726 4.67598 27.3593 5.68697L22.2926 11.5002C21.406 12.5111 21.5327 14.154 22.546 15.165C23.5593 16.0496 25.2059 15.9232 26.2193 14.9122L27.9926 12.7639C28.3726 12.7639 29.5126 12.5111 29.6392 14.2804L23.4326 21.3573C22.926 22.7474 23.0526 24.3903 24.066 25.2749C25.0793 26.1595 26.7259 26.0331 27.7393 25.0221L33.9459 17.8188C34.3259 17.6925 35.5925 17.5661 35.5925 19.3353L33.9459 21.2309C33.0592 22.2419 33.1859 23.8848 34.1992 24.8958C35.2125 25.7804 36.8592 25.654 37.8725 24.643L42.9391 18.8298C43.9524 17.8188 43.8258 16.176 42.6858 15.165Z" fill="white"/>
<path d="M5.44661 67.7363C1.77332 67.7363 0 65.9671 0 62.4286L0.126665 42.9671C0.126665 39.3023 2.02665 37.4067 5.69994 37.533H18.9998V45.1154L8.35991 44.9891C7.59992 44.9891 7.21993 45.3682 7.09326 46.1264L6.9666 58.7638C6.9666 59.522 7.34659 59.9012 8.10658 60.0275L18.8731 60.1539V67.7363H5.44661Z" fill="#F48619"/>
<path d="M26.7264 67.8627C23.0531 67.8627 21.2798 66.0934 21.2798 62.555L21.4065 43.0934C21.4065 39.4286 23.3064 37.533 26.9797 37.6594L37.9996 37.7858C41.6729 37.7858 43.4462 39.6814 43.4462 43.3462L43.3196 62.8077C43.3196 66.3462 41.4196 68.1154 37.7463 68.1154L26.7264 67.8627ZM36.4796 46.5055C36.4796 45.7473 36.0996 45.3682 35.3396 45.2418H29.6397C28.8797 45.2418 28.4997 45.6209 28.373 46.3792L28.2464 59.0165C28.2464 59.7748 28.6264 60.1539 29.3864 60.2802H35.0863C35.8463 60.2802 36.2263 59.9011 36.353 59.1429L36.4796 46.5055Z" fill="#F48619"/>
<path d="M69.2861 68.2418L69.4128 52.8242L64.9795 68.2418H58.0129L53.833 52.6978L53.7063 68.1154H46.613L46.8664 37.7858L56.4929 37.9121L61.6862 57.8792L66.8795 37.9121L76.5061 38.0385L76.2527 68.3682L69.2861 68.2418Z" fill="#F48619"/>
<path d="M79.7991 68.2418L80.0524 37.9121L96.5189 38.0385C100.192 38.0385 101.966 39.9341 101.966 43.7253L101.839 51.8132C101.839 55.3517 99.9389 56.9945 96.3922 56.9945L86.7657 56.8681L86.639 68.2418H79.7991ZM94.9989 46.8846C94.9989 46.1264 94.6189 45.7473 93.8589 45.6209H86.8923V50.1703H93.8589C94.6189 50.1703 94.9989 49.7912 95.1256 49.033L94.9989 46.8846Z" fill="#F48619"/>
<path d="M120.458 68.6208L120.585 56.2362L111.465 56.1098L111.338 68.4944H104.499L104.752 43.4725C104.752 39.934 106.652 38.1648 110.325 38.1648L122.105 38.2912C125.778 38.2912 127.678 40.0604 127.678 43.5989L127.425 68.6208H120.458ZM120.585 46.8846C120.585 46.1263 120.205 45.7472 119.445 45.6208H112.605C111.845 45.6208 111.465 46 111.338 46.7582V49.6648L120.458 49.7912L120.585 46.8846Z" fill="#F48619"/>
<path d="M148.199 68.8736L137.812 52.8242L137.686 68.8736H130.719L130.972 38.5439H137.559L147.059 54.467L147.185 38.6703H154.152L153.899 69L148.199 68.8736Z" fill="#F48619"/>
<path d="M164.285 69.0001L164.411 55.7308L156.178 38.6704H164.158L168.465 48.2748L173.151 38.6704H180.498L171.758 55.6045L171.631 68.8737L164.285 69.0001Z" fill="#F48619"/>
<path d="M56.7461 30.3297L56.9994 0L75.6192 0.126374V7.58241H63.8394V11.8791L72.5793 12.0055V18.7033L63.8394 18.5769L63.7127 30.3297H56.7461Z" fill="white"/>
<path d="M77.7725 30.4561L78.0258 0.126465H84.9924L84.7391 30.4561H77.7725Z" fill="white"/>
<path d="M103.485 30.7088C103.485 30.5824 103.359 30.3297 103.359 30.0769C103.359 29.8242 103.359 29.5714 103.359 29.1923L103.485 20.0934C103.485 19.3352 103.106 18.956 102.346 18.8297H95.3789L95.2522 30.8352H88.2856L88.539 0.505493L104.879 0.631867C108.552 0.631867 110.325 2.52747 110.325 6.31868V11.1209C110.325 13.9011 109.185 15.4176 106.905 15.7967C108.045 16.0494 108.932 16.5549 109.565 17.3132C110.072 18.0714 110.325 18.956 110.325 20.2198L110.199 29.1923C110.199 29.6978 110.199 30.0769 110.199 30.3297C110.199 30.5824 110.325 30.8351 110.325 30.9615L103.485 30.7088ZM103.359 8.97252C103.359 8.21428 102.979 7.83516 102.219 7.70879H95.2522V12.2582H102.219C102.979 12.2582 103.359 11.8791 103.485 11.1209L103.359 8.97252Z" fill="white"/>
<path d="M113.366 30.7089V23.1265L126.919 23.2528C127.679 23.2528 128.059 22.8737 128.186 22.1155V20.0935C128.186 19.3352 127.806 18.9561 127.046 18.8298L118.939 18.7034C115.266 18.7034 113.366 16.9341 113.366 13.3957V6.1924C113.366 2.40119 115.266 0.379211 118.812 0.505585L134.519 0.631959V8.21437L121.599 8.088C120.839 8.088 120.459 8.46712 120.332 9.22536V11.121C120.332 11.8792 120.712 12.2583 121.472 12.3847L129.832 12.5111C133.379 12.5111 135.152 14.2803 135.152 17.9451V25.0221C135.152 28.9396 133.126 30.9616 129.326 30.8352L113.366 30.7089Z" fill="white"/>
<path d="M144.145 30.9615L144.272 8.34059H137.305V0.758179L158.078 0.884552V8.46697H151.112L150.985 31.0878L144.145 30.9615Z" fill="white"/>
</svg>
