<svg width="181" height="69" viewBox="0 0 181 69" fill="none" xmlns="http://www.w3.org/2000/svg">
<path d="M31.2865 30.2032C43.2489 30.2032 52.9463 23.64 52.9463 15.5439C52.9463 7.44773 43.2489 0.884521 31.2865 0.884521C19.3241 0.884521 9.62671 7.44773 9.62671 15.5439C9.62671 23.64 19.3241 30.2032 31.2865 30.2032Z" fill="#231F20"/>
<path d="M20.8997 19.5879C22.019 19.5879 22.9263 18.6826 22.9263 17.5659C22.9263 16.4492 22.019 15.5439 20.8997 15.5439C19.7804 15.5439 18.873 16.4492 18.873 17.5659C18.873 18.6826 19.7804 19.5879 20.8997 19.5879Z" fill="#F48619"/>
<path d="M42.6858 15.1649C41.6724 14.2802 40.0258 14.4066 39.0125 15.4176L36.7325 17.9451C34.9592 18.0715 34.9592 16.6813 34.9592 16.4286L41.1658 9.22531C42.0524 8.21432 41.9258 6.57146 40.9125 5.56047C39.8991 4.67586 38.2525 4.80223 37.2392 5.81322L30.9059 13.0165C29.1326 13.1429 29.2592 11.7528 29.2592 11.5L31.2859 9.09893C32.1725 8.08795 32.0459 6.44509 31.0326 5.4341C30.0192 4.54948 28.3726 4.67586 27.3593 5.68685L22.2926 11.5C21.406 12.511 21.5327 14.1539 22.546 15.1649C23.5593 16.0495 25.2059 15.9231 26.2193 14.9121L27.9926 12.7638C28.3726 12.7638 29.5126 12.511 29.6392 14.2802L23.4326 21.3572C22.926 22.7473 23.0526 24.3901 24.066 25.2747C25.0793 26.1594 26.7259 26.033 27.7393 25.022L33.9459 17.8187C34.3259 17.6923 35.5925 17.566 35.5925 19.3352L33.9459 21.2308C33.0592 22.2418 33.1859 23.8846 34.1992 24.8956C35.2125 25.7802 36.8592 25.6539 37.8725 24.6429L42.9391 18.8297C43.9524 17.8187 43.8258 16.1759 42.6858 15.1649Z" fill="white"/>
<path d="M5.44661 67.7363C1.77332 67.7363 0 65.9671 0 62.4286L0.126665 42.9671C0.126665 39.3023 2.02665 37.4067 5.69994 37.533H18.9998V45.1154L8.35991 44.9891C7.59992 44.9891 7.21993 45.3682 7.09326 46.1264L6.9666 58.7638C6.9666 59.522 7.34659 59.9012 8.10658 60.0275L18.8731 60.1539V67.7363H5.44661Z" fill="#F48619"/>
<path d="M26.7264 67.8628C23.0531 67.8628 21.2798 66.0935 21.2798 62.5551L21.4065 43.0936C21.4065 39.4287 23.3064 37.5331 26.9797 37.6595L37.9996 37.7859C41.6729 37.7859 43.4462 39.6815 43.4462 43.3463L43.3196 62.8078C43.3196 66.3463 41.4196 68.1155 37.7463 68.1155L26.7264 67.8628ZM36.4796 46.5056C36.4796 45.7474 36.0996 45.3683 35.3396 45.2419H29.6397C28.8797 45.2419 28.4997 45.621 28.373 46.3793L28.2464 59.0166C28.2464 59.7749 28.6264 60.154 29.3864 60.2804H35.0863C35.8463 60.2804 36.2263 59.9012 36.353 59.143L36.4796 46.5056Z" fill="#F48619"/>
<path d="M69.2861 68.2419L69.4128 52.8243L64.9795 68.2419H58.0129L53.833 52.698L53.7063 68.1155H46.613L46.8664 37.7859L56.4929 37.9123L61.6862 57.8793L66.8795 37.9123L76.5061 38.0386L76.2527 68.3683L69.2861 68.2419Z" fill="#F48619"/>
<path d="M79.7991 68.2418L80.0524 37.9121L96.5189 38.0385C100.192 38.0385 101.966 39.9341 101.966 43.7253L101.839 51.8132C101.839 55.3517 99.9389 56.9945 96.3922 56.9945L86.7657 56.8681L86.639 68.2418H79.7991ZM94.9989 46.8846C94.9989 46.1264 94.6189 45.7473 93.8589 45.6209H86.8923V50.1703H93.8589C94.6189 50.1703 94.9989 49.7912 95.1256 49.033L94.9989 46.8846Z" fill="#F48619"/>
<path d="M120.458 68.6208L120.585 56.2362L111.465 56.1098L111.338 68.4944H104.499L104.752 43.4725C104.752 39.934 106.652 38.1648 110.325 38.1648L122.105 38.2912C125.778 38.2912 127.678 40.0604 127.678 43.5989L127.425 68.6208H120.458ZM120.585 46.8846C120.585 46.1263 120.205 45.7472 119.445 45.6208H112.605C111.845 45.6208 111.465 46 111.338 46.7582V49.6648L120.458 49.7912L120.585 46.8846Z" fill="#F48619"/>
<path d="M148.199 68.8736L137.812 52.8242L137.686 68.8736H130.719L130.972 38.5439H137.559L147.059 54.467L147.185 38.6703H154.152L153.899 69L148.199 68.8736Z" fill="#F48619"/>
<path d="M164.285 69.0001L164.411 55.7308L156.178 38.6704H164.158L168.465 48.2748L173.151 38.6704H180.498L171.758 55.6045L171.631 68.8737L164.285 69.0001Z" fill="#F48619"/>
<path d="M56.7461 30.3297L56.9994 0L75.6192 0.126374V7.58241H63.8394V11.8791L72.5793 12.0055V18.7033L63.8394 18.5769L63.7127 30.3297H56.7461Z" fill="#231F20"/>
<path d="M77.7725 30.4561L78.0258 0.126465H84.9924L84.7391 30.4561H77.7725Z" fill="#231F20"/>
<path d="M103.485 30.7089C103.485 30.5825 103.359 30.3298 103.359 30.077C103.359 29.8243 103.359 29.5715 103.359 29.1924L103.485 20.0935C103.485 19.3353 103.106 18.9562 102.346 18.8298H95.3789L95.2522 30.8353H88.2856L88.539 0.505615L104.879 0.631989C108.552 0.631989 110.325 2.52759 110.325 6.3188V11.121C110.325 13.9012 109.185 15.4177 106.905 15.7968C108.045 16.0496 108.932 16.5551 109.565 17.3133C110.072 18.0715 110.325 18.9562 110.325 20.2199L110.199 29.1924C110.199 29.6979 110.199 30.077 110.199 30.3298C110.199 30.5825 110.325 30.8353 110.325 30.9616L103.485 30.7089ZM103.359 8.97264C103.359 8.2144 102.979 7.83528 102.219 7.70891H95.2522V12.2584H102.219C102.979 12.2584 103.359 11.8792 103.485 11.121L103.359 8.97264Z" fill="#231F20"/>
<path d="M113.366 30.7089V23.1265L126.919 23.2528C127.679 23.2528 128.059 22.8737 128.186 22.1155V20.0935C128.186 19.3352 127.806 18.9561 127.046 18.8298L118.939 18.7034C115.266 18.7034 113.366 16.9341 113.366 13.3957V6.1924C113.366 2.40119 115.266 0.379211 118.812 0.505585L134.519 0.631959V8.21437L121.599 8.088C120.839 8.088 120.459 8.46712 120.332 9.22536V11.121C120.332 11.8792 120.712 12.2583 121.472 12.3847L129.832 12.5111C133.379 12.5111 135.152 14.2803 135.152 17.9451V25.0221C135.152 28.9396 133.126 30.9616 129.326 30.8352L113.366 30.7089Z" fill="#231F20"/>
<path d="M144.145 30.9613L144.272 8.34047H137.305V0.758057L158.078 0.884429V8.46684H151.112L150.985 31.0877L144.145 30.9613Z" fill="#231F20"/>
</svg>
