<svg width="181" height="69" viewBox="0 0 181 69" fill="none" xmlns="http://www.w3.org/2000/svg">
<path fill-rule="evenodd" clip-rule="evenodd" d="M31.2866 30.2034C43.2489 30.2034 52.9464 23.6402 52.9464 15.5441C52.9464 7.44797 43.2489 0.884766 31.2866 0.884766C19.3242 0.884766 9.6268 7.44797 9.6268 15.5441C9.6268 23.6402 19.3242 30.2034 31.2866 30.2034ZM20.8998 19.5879C22.019 19.5879 22.9264 18.6826 22.9264 17.5659C22.9264 16.4492 22.019 15.5439 20.8998 15.5439C19.7805 15.5439 18.8731 16.4492 18.8731 17.5659C18.8731 18.6826 19.7805 19.5879 20.8998 19.5879ZM39.0124 15.4179C40.0258 14.4069 41.6724 14.2805 42.6857 15.1651C43.8257 16.1761 43.9524 17.819 42.9391 18.8299L37.8725 24.6431C36.8591 25.6541 35.2125 25.7805 34.1992 24.8959C33.1858 23.8849 33.0592 22.242 33.9458 21.231L35.5925 19.3354C35.5925 17.5662 34.3258 17.6926 33.9458 17.819L27.7392 25.0222C26.7259 26.0332 25.0793 26.1596 24.0659 25.275C23.0526 24.3904 22.9259 22.7475 23.4326 21.3574L29.6392 14.2805C29.5248 12.6831 28.5845 12.734 28.1232 12.7589C28.0735 12.7616 28.0295 12.764 27.9926 12.764L26.2192 14.9124C25.2059 15.9233 23.5593 16.0497 22.5459 15.1651C21.5326 14.1541 21.406 12.5113 22.2926 11.5003L27.3592 5.68709C28.3726 4.6761 30.0192 4.54973 31.0325 5.43434C32.0458 6.44533 32.1725 8.08819 31.2859 9.09918L29.2592 11.5003C29.2592 11.5134 29.2589 11.5297 29.2585 11.5486C29.2512 11.8937 29.2249 13.1365 30.9059 13.0168L37.2391 5.81347C38.2524 4.80248 39.8991 4.6761 40.9124 5.56072C41.9257 6.57171 42.0524 8.21456 41.1658 9.22555L34.9591 16.4288C34.9591 16.6816 34.9591 18.0717 36.7325 17.9453L39.0124 15.4179Z" fill="white"/>
<path d="M5.44661 67.7361C1.77332 67.7361 0 65.9668 0 62.4284L0.126665 42.9668C0.126665 39.302 2.02665 37.4064 5.69994 37.5328H18.9998V45.1152L8.35991 44.9888C7.59992 44.9888 7.21993 45.3679 7.09326 46.1262L6.9666 58.7635C6.9666 59.5218 7.34659 59.9009 8.10658 60.0273L18.8731 60.1537V67.7361H5.44661Z" fill="white"/>
<path d="M26.7265 67.8625C23.0532 67.8625 21.2799 66.0933 21.2799 62.5548L21.4065 43.0933C21.4065 39.4285 23.3065 37.5329 26.9798 37.6593L37.9997 37.7856C41.673 37.7856 43.4463 39.6812 43.4463 43.3461L43.3197 62.8076C43.3197 66.3461 41.4197 68.1153 37.7464 68.1153L26.7265 67.8625ZM36.4797 46.5054C36.4797 45.7472 36.0997 45.368 35.3397 45.2417H29.6398C28.8798 45.2417 28.4998 45.6208 28.3731 46.379L28.2465 59.0164C28.2465 59.7746 28.6265 60.1537 29.3865 60.2801H35.0864C35.8464 60.2801 36.2264 59.901 36.3531 59.1428L36.4797 46.5054Z" fill="white"/>
<path d="M69.2861 68.2417L69.4128 52.8241L64.9795 68.2417H58.0129L53.8329 52.6977L53.7063 68.1153H46.613L46.8663 37.7856L56.4929 37.912L61.6862 57.879L66.8795 37.912L76.506 38.0384L76.2527 68.368L69.2861 68.2417Z" fill="white"/>
<path d="M79.7991 68.2418L80.0524 37.9121L96.5189 38.0385C100.192 38.0385 101.966 39.9341 101.966 43.7253L101.839 51.8132C101.839 55.3517 99.9389 56.9945 96.3922 56.9945L86.7657 56.8681L86.639 68.2418H79.7991ZM94.9989 46.8846C94.9989 46.1264 94.6189 45.7473 93.8589 45.6209H86.8923V50.1703H93.8589C94.6189 50.1703 94.9989 49.7912 95.1256 49.033L94.9989 46.8846Z" fill="white"/>
<path d="M120.458 68.6206L120.585 56.236L111.465 56.1096L111.338 68.4942H104.499L104.752 43.4722C104.752 39.9338 106.652 38.1646 110.325 38.1646L122.105 38.2909C125.778 38.2909 127.678 40.0602 127.678 43.5986L127.425 68.6206H120.458ZM120.585 46.8843C120.585 46.1261 120.205 45.747 119.445 45.6206H112.605C111.845 45.6206 111.465 45.9997 111.338 46.758V49.6645L120.458 49.7909L120.585 46.8843Z" fill="white"/>
<path d="M148.199 68.8731L137.812 52.8237L137.686 68.8731H130.719L130.972 38.5435H137.559L147.059 54.4665L147.186 38.6698H154.152L153.899 68.9995L148.199 68.8731Z" fill="white"/>
<path d="M164.285 68.9996L164.411 55.7304L156.178 38.6699H164.158L168.465 48.2743L173.151 38.6699H180.498L171.758 55.604L171.631 68.8732L164.285 68.9996Z" fill="white"/>
<path d="M56.746 30.3297L56.9994 0L75.6192 0.126374V7.58241H63.8393V11.8791L72.5792 12.0055V18.7033L63.8393 18.5769L63.7126 30.3297H56.746Z" fill="white"/>
<path d="M77.7724 30.4561L78.0257 0.126465H84.9923L84.739 30.4561H77.7724Z" fill="white"/>
<path d="M103.485 30.7087C103.485 30.5823 103.359 30.3295 103.359 30.0768C103.359 29.824 103.359 29.5713 103.359 29.1922L103.485 20.0933C103.485 19.335 103.105 18.9559 102.345 18.8295H95.3789L95.2522 30.835H88.2856L88.539 0.505371L104.879 0.631745C108.552 0.631745 110.325 2.52735 110.325 6.31856V11.1208C110.325 13.901 109.185 15.4175 106.905 15.7966C108.045 16.0493 108.932 16.5548 109.565 17.3131C110.072 18.0713 110.325 18.9559 110.325 20.2196L110.199 29.1922C110.199 29.6977 110.199 30.0768 110.199 30.3295C110.199 30.5823 110.325 30.835 110.325 30.9614L103.485 30.7087ZM103.359 8.9724C103.359 8.21416 102.979 7.83504 102.219 7.70867H95.2522V12.2581H102.219C102.979 12.2581 103.359 11.879 103.485 11.1208L103.359 8.9724Z" fill="white"/>
<path d="M113.366 30.7089V23.1265L126.919 23.2528C127.679 23.2528 128.059 22.8737 128.185 22.1155V20.0935C128.185 19.3352 127.805 18.9561 127.045 18.8298L118.939 18.7034C115.266 18.7034 113.366 16.9341 113.366 13.3957V6.1924C113.366 2.40119 115.266 0.379211 118.812 0.505585L134.519 0.631959V8.21437L121.599 8.088C120.839 8.088 120.459 8.46712 120.332 9.22536V11.121C120.332 11.8792 120.712 12.2583 121.472 12.3847L129.832 12.5111C133.379 12.5111 135.152 14.2803 135.152 17.9451V25.0221C135.152 28.9396 133.125 30.9616 129.325 30.8352L113.366 30.7089Z" fill="white"/>
<path d="M144.145 30.9616L144.272 8.34071H137.305V0.758301L158.078 0.884674V8.46709H151.112L150.985 31.088L144.145 30.9616Z" fill="white"/>
</svg>
