<svg width="860" height="1275" viewBox="0 0 860 1275" fill="none" xmlns="http://www.w3.org/2000/svg">
<path d="M858 440.67V649.25L227.909 642.241H227.898C217.212 642.241 209.051 644.919 203.115 650.404C197.193 655.876 193.623 664.016 191.85 674.665L191.838 674.742L191.837 674.819L188.331 1025.8V1025.81C188.331 1036.5 191.005 1044.67 196.484 1050.61C201.951 1056.54 210.083 1060.12 220.721 1061.89L220.8 1061.9L220.88 1061.9L854.494 1065.41V1274H150.763C100.07 1274 62.6786 1261.75 37.9538 1237.43C13.2322 1213.12 1 1176.57 1 1127.59L4.5062 587.091V587.085C4.5062 536.353 17.612 498.046 43.2132 472.853C68.811 447.662 107.071 435.415 157.741 437.164L157.756 437.165L157.771 437.165L858 440.67Z" fill="#FFFAF6" stroke="#FFDDBB" stroke-width="2"/>
<path d="M858.288 161.741C858.288 250.517 786.364 322.483 697.644 322.483C608.923 322.483 537 250.517 537 161.741C537 72.9658 608.923 1 697.644 1C786.364 1 858.288 72.9658 858.288 161.741Z" fill="#FFFAF6" stroke="#FFDDBB" stroke-width="2"/>
</svg>
