<svg width="80" height="66" viewBox="0 0 80 66" fill="none" xmlns="http://www.w3.org/2000/svg">
<path d="M77.0037 36.1254L11.8717 36.0969L35.9936 60.2188C36.5979 60.823 36.9374 61.6426 36.9374 62.4971C36.9374 63.3517 36.5979 64.1712 35.9936 64.7755C35.3894 65.3797 34.5698 65.7192 33.7153 65.7192C32.8608 65.7192 32.0412 65.3797 31.437 64.7755L1.81856 35.1571C1.21431 34.5528 0.874837 33.7333 0.874837 32.8787C0.874837 32.0242 1.2143 31.2046 1.81856 30.6004L31.437 0.981994C32.0412 0.377741 32.8607 0.038276 33.7153 0.0382761C34.5698 0.0382761 35.3894 0.377741 35.9936 0.981994C36.5979 1.58625 36.9373 2.40579 36.9373 3.26033C36.9373 4.11487 36.5979 4.93442 35.9936 5.53867L11.8717 29.6606L77.0037 29.6321C77.8097 29.7115 78.5573 30.0878 79.1012 30.6879C79.6451 31.2879 79.9464 32.0689 79.9464 32.8787C79.9464 33.6886 79.6451 34.4695 79.1012 35.0696C78.5574 35.6697 77.8097 36.046 77.0037 36.1254Z" fill="#FF7F00"/>
</svg>
