<svg width="23" height="20" viewBox="0 0 23 20" fill="none" xmlns="http://www.w3.org/2000/svg">
<path d="M1.19612 9.07081L19.3385 9.07874L12.6194 2.35964C12.4511 2.19133 12.3565 1.96305 12.3565 1.72501C12.3565 1.48698 12.4511 1.2587 12.6194 1.09039C12.7877 0.922076 13.016 0.827518 13.254 0.827517C13.492 0.827518 13.7203 0.922076 13.8886 1.09039L22.1388 9.34052C22.3071 9.50883 22.4016 9.73712 22.4016 9.97515C22.4016 10.2132 22.3071 10.4415 22.1388 10.6098L13.8886 18.8599C13.7203 19.0282 13.492 19.1228 13.254 19.1228C13.016 19.1228 12.7877 19.0282 12.6194 18.8599C12.4511 18.6916 12.3565 18.4633 12.3565 18.2253C12.3565 17.9872 12.4511 17.759 12.6194 17.5907L19.3385 10.8716L1.19612 10.8795C0.971615 10.8574 0.763359 10.7526 0.61186 10.5854C0.46036 10.4183 0.37645 10.2007 0.37645 9.97515C0.37645 9.74956 0.46036 9.53203 0.611859 9.36488C0.763358 9.19773 0.971615 9.09291 1.19612 9.07081Z" fill="#FF7F00"/>
</svg>
