<svg width="81" height="66" viewBox="0 0 81 66" fill="none" xmlns="http://www.w3.org/2000/svg">
<path d="M3.87714 29.6325L69.0091 29.6609L44.8872 5.53902C44.283 4.93477 43.9435 4.11523 43.9435 3.26069C43.9435 2.40614 44.283 1.5866 44.8872 0.982348C45.4915 0.378095 46.311 0.0386257 47.1656 0.0386257C48.0201 0.0386257 48.8396 0.378095 49.4439 0.982348L79.0623 30.6007C79.6666 31.205 80.006 32.0245 80.006 32.8791C80.006 33.7336 79.6666 34.5532 79.0623 35.1574L49.4439 64.7758C48.8397 65.3801 48.0201 65.7195 47.1656 65.7195C46.311 65.7195 45.4915 65.3801 44.8872 64.7758C44.283 64.1716 43.9435 63.352 43.9435 62.4975C43.9435 61.6429 44.283 60.8234 44.8872 60.2191L69.0091 36.0972L3.87714 36.1257C3.07116 36.0464 2.32351 35.67 1.77962 35.07C1.23573 34.4699 0.934483 33.689 0.934482 32.8791C0.934482 32.0692 1.23572 31.2883 1.77961 30.6882C2.3235 30.0881 3.07116 29.7118 3.87714 29.6325V29.6325Z" fill="#FF7F00"/>
</svg>
