<svg width="23" height="20" viewBox="0 0 23 20" fill="none" xmlns="http://www.w3.org/2000/svg">
<path d="M21.5773 10.8794L3.43496 10.8715L10.1541 17.5906C10.3224 17.7589 10.4169 17.9872 10.4169 18.2252C10.4169 18.4632 10.3224 18.6915 10.1541 18.8598C9.98575 19.0281 9.75746 19.1227 9.51943 19.1227C9.2814 19.1227 9.05312 19.0281 8.88481 18.8598L0.634675 10.6097C0.466362 10.4414 0.371805 10.2131 0.371804 9.97505C0.371804 9.73702 0.466362 9.50874 0.634675 9.34042L8.88481 1.09029C9.05312 0.921978 9.2814 0.827421 9.51943 0.827421C9.75746 0.827421 9.98574 0.921978 10.1541 1.09029C10.3224 1.2586 10.4169 1.48689 10.4169 1.72492C10.4169 1.96295 10.3224 2.19123 10.1541 2.35954L3.43496 9.07864L21.5773 9.07071C21.8018 9.09281 22.0101 9.19764 22.1616 9.36479C22.3131 9.53193 22.397 9.74946 22.397 9.97505C22.397 10.2006 22.3131 10.4182 22.1616 10.5853C22.0101 10.7525 21.8018 10.8573 21.5773 10.8794Z" fill="#FF7F00"/>
</svg>
