<svg width="1935" height="475" viewBox="0 0 1935 475" fill="none" xmlns="http://www.w3.org/2000/svg">
<path d="M3 200.915L4.64963 2.80127L125.897 3.62674V52.3296H49.1897V80.3957H106.102V124.146L49.1897 123.32L48.3648 200.915H3Z" stroke="#FFF1E3" stroke-width="5" stroke-miterlimit="10"/>
<path d="M139.919 201.74L141.569 3.62671H186.933L185.284 201.74H139.919Z" stroke="#FFF1E3" stroke-width="5" stroke-miterlimit="10"/>
<path d="M307.357 203.392C307.357 202.566 306.532 200.915 306.532 199.264C306.532 197.613 306.532 195.962 306.532 193.486L307.357 134.052C307.357 129.099 304.882 126.623 299.933 125.797H254.569L253.744 204.217H208.379L210.029 6.10376L316.43 6.92923C340.349 6.92923 351.897 19.3113 351.897 44.0755V75.4435C351.897 93.6039 344.473 103.51 329.627 105.986C337.05 107.637 342.824 110.939 346.948 115.892C350.247 120.844 351.897 126.623 351.897 134.877L351.072 193.486C351.072 196.788 351.072 199.264 351.072 200.915C351.072 202.566 351.897 204.217 351.897 205.043L307.357 203.392ZM307.357 61.4104C307.357 56.4576 304.882 53.9812 299.933 53.1557H254.569V82.8727H299.933C304.882 82.8727 307.357 80.3963 308.182 75.4435L307.357 61.4104Z" stroke="#FFF1E3" stroke-width="5" stroke-miterlimit="10"/>
<path d="M371.689 203.39V153.862L460.77 154.687C465.718 154.687 468.193 152.211 469.018 147.258V134.05C469.018 129.097 466.543 126.621 461.594 125.795L408.806 124.97C384.886 124.97 372.514 113.413 372.514 90.3001V43.2482C372.514 18.484 384.886 5.27644 407.981 6.10191L509.434 6.92738V56.4557L425.302 55.6303C420.354 55.6303 417.879 58.1067 417.054 63.0595V75.4416C417.054 80.3945 419.529 82.8709 424.478 83.6964L478.915 84.5218C502.01 84.5218 513.558 96.0784 513.558 120.017V166.244C513.558 191.833 500.361 205.041 475.616 204.215L371.689 203.39Z" stroke="#FFF1E3" stroke-width="5" stroke-miterlimit="10"/>
<path d="M572.945 205.043L573.77 57.2832H528.405V7.75488L663.675 8.58036V58.1087H618.31L617.485 205.868L572.945 205.043Z" stroke="#FFF1E3" stroke-width="5" stroke-miterlimit="10"/>
<path d="M791.526 463.416C767.606 463.416 756.059 451.859 756.059 428.746L756.883 301.623C756.883 277.684 769.256 265.302 793.175 266.128L879.781 266.953V316.482L810.496 315.656C805.547 315.656 803.073 318.133 802.248 323.085L801.423 405.633C801.423 410.586 803.898 413.062 808.847 413.887L878.956 414.713V464.241L791.526 463.416Z" stroke="#FFF1E3" stroke-width="5" stroke-miterlimit="10"/>
<path d="M929.266 464.241C905.346 464.241 893.799 452.685 893.799 429.571L894.624 302.449C894.624 278.51 906.996 266.128 930.916 266.953L1002.67 267.779C1026.59 267.779 1038.14 280.161 1038.14 304.1L1037.32 431.222C1037.32 454.336 1024.94 465.892 1001.02 465.892L929.266 464.241ZM992.777 324.736C992.777 319.784 990.302 317.307 985.353 316.482H948.237C943.288 316.482 940.813 318.958 939.988 323.911L939.164 406.458C939.164 411.411 941.638 413.887 946.587 414.713H983.704C988.653 414.713 991.127 412.237 991.952 407.284L992.777 324.736Z" stroke="#FFF1E3" stroke-width="5" stroke-miterlimit="10"/>
<path d="M1207.23 466.717L1208.05 366.009L1179.19 466.717H1133.82L1106.6 365.184L1105.78 465.892H1059.59L1061.24 267.778L1123.92 268.604L1157.74 399.028L1192.38 268.604L1255.07 269.429L1253.42 467.542L1207.23 466.717Z" stroke="#FFF1E3" stroke-width="5" stroke-miterlimit="10"/>
<path d="M1275.69 467.543L1277.34 269.429L1384.57 270.255C1408.48 270.255 1420.03 282.637 1420.03 307.401L1419.21 359.406C1419.21 382.519 1406.84 393.25 1382.92 393.25L1321.05 392.425L1320.23 466.717L1275.69 467.543ZM1374.67 328.038C1374.67 323.085 1372.19 320.609 1367.24 319.783H1321.88V349.5H1367.24C1372.19 349.5 1374.67 347.024 1375.49 342.071L1374.67 328.038Z" stroke="#FFF1E3" stroke-width="5" stroke-miterlimit="10"/>
<path d="M1539.63 469.194L1540.45 388.297L1481.07 387.472L1480.24 468.368H1435.7L1437.35 304.924C1437.35 281.811 1449.72 270.255 1473.64 270.255L1550.35 271.08C1574.27 271.08 1586.64 282.637 1586.64 305.75L1584.99 469.194H1539.63ZM1541.28 328.038C1541.28 323.085 1538.8 320.608 1533.86 319.783H1489.32C1484.37 319.783 1481.89 322.259 1481.07 327.212V346.198L1540.45 347.024L1541.28 328.038Z" stroke="#FFF1E3" stroke-width="5" stroke-miterlimit="10"/>
<path d="M1721.09 470.845L1653.45 366.01L1652.63 470.845H1607.26L1608.91 272.732H1651.8L1713.66 376.741L1714.49 273.557H1759.85L1758.2 471.671L1721.09 470.845Z" stroke="#FFF1E3" stroke-width="5" stroke-miterlimit="10"/>
<path d="M1825.02 471.671L1825.84 384.996L1772.23 273.557H1824.19L1852.24 336.293L1882.76 273.557H1930.59L1873.68 384.171L1872.86 470.845L1825.02 471.671Z" stroke="#FFF1E3" stroke-width="5" stroke-miterlimit="10"/>
</svg>
