<svg width="372" height="254" viewBox="0 0 372 254" fill="none" xmlns="http://www.w3.org/2000/svg">
<path d="M186 253.345C288.725 253.345 372 196.632 372 126.672C372 56.7132 288.725 0 186 0C83.275 0 0 56.7132 0 126.672C0 196.632 83.275 253.345 186 253.345Z" fill="#F48619" fill-opacity="0.2"/>
<path d="M283.575 123.45C274.683 115.893 260.233 116.973 251.341 125.609L231.333 147.199C215.771 148.278 215.771 136.404 215.771 134.245L270.237 72.7138C278.017 64.0779 276.906 50.0445 268.014 41.4086C259.121 33.8522 244.671 34.9317 235.779 43.5676L180.202 105.098C164.64 106.178 165.752 94.3036 165.752 92.1446L183.537 71.6343C191.317 62.9984 190.206 48.965 181.314 40.3291C172.421 32.7727 157.971 33.8522 149.079 42.4881L104.617 92.1446C96.8365 100.78 97.9481 114.814 106.84 123.45C115.733 131.006 130.183 129.927 139.075 121.291L154.637 102.939C157.971 102.939 167.975 100.78 169.087 115.893L114.621 176.345C110.175 188.219 111.287 202.252 120.179 209.809C129.071 217.365 143.521 216.286 152.414 207.65L206.879 146.119C210.214 145.04 221.329 143.96 221.329 159.073L206.879 175.265C199.098 183.901 200.21 197.934 209.102 206.57C217.994 214.127 232.444 213.047 241.337 204.411L285.798 154.755C294.691 146.119 293.579 132.086 283.575 123.45Z" fill="white" fill-opacity="0.5"/>
</svg>
