<svg width="29" height="75" viewBox="0 0 29 75" fill="none" xmlns="http://www.w3.org/2000/svg">
<path d="M28.6648 61.8236L15.5391 74.5913C15.2604 74.8534 14.8878 75 14.5 75C14.1122 75 13.7396 74.8534 13.4609 74.5913L0.335207 61.8236C0.102645 61.548 -0.0162033 61.1981 0.00177904 60.8419C0.0197613 60.4858 0.173289 60.1489 0.432499 59.8967C0.691708 59.6446 1.03807 59.4952 1.4042 59.4778C1.77034 59.4603 2.13008 59.5759 2.41344 59.8021L13.0416 70.158L12.6548 1.41862C12.6548 1.04238 12.8085 0.68155 13.082 0.415506C13.3555 0.149462 13.7264 0 14.1132 0C14.5 0 14.871 0.149462 15.1445 0.415506C15.418 0.68155 15.5716 1.04238 15.5716 1.41862L15.9584 70.158L26.5866 59.8021C26.8699 59.5759 27.2297 59.4603 27.5958 59.4778C27.9619 59.4952 28.3083 59.6446 28.5675 59.8967C28.8267 60.1489 28.9802 60.4858 28.9982 60.8419C29.0162 61.1981 28.8974 61.548 28.6648 61.8236Z" fill="black"/>
</svg>
