<svg width="26" height="26" viewBox="0 0 26 26" fill="none" xmlns="http://www.w3.org/2000/svg">
<path d="M24.788 4.10825L21.4276 0.750971C21.1905 0.51288 20.9088 0.323971 20.5985 0.195096C20.2883 0.066221 19.9556 -8.0523e-05 19.6196 7.33917e-08C18.9349 7.33917e-08 18.2912 0.268204 17.8085 0.750971L14.1925 4.36699C13.9544 4.60404 13.7655 4.88579 13.6366 5.19607C13.5078 5.50634 13.4415 5.83903 13.4415 6.175C13.4415 6.85971 13.7097 7.5034 14.1925 7.98617L16.8366 10.6303C16.2177 11.9946 15.3572 13.2357 14.2966 14.2937C13.2387 15.3568 11.9978 16.2205 10.6333 16.8432L7.9892 14.199C7.75216 13.9609 7.47041 13.772 7.16014 13.6432C6.84987 13.5143 6.51719 13.448 6.18122 13.4481C5.49652 13.4481 4.85284 13.7163 4.37008 14.199L0.750961 17.8119C0.512582 18.0494 0.323513 18.3317 0.194634 18.6425C0.065755 18.9533 -0.000391001 19.2866 1.73868e-06 19.6231C1.73868e-06 20.3078 0.268202 20.9515 0.750961 21.4342L4.10504 24.7883C4.87493 25.5614 5.93826 26 7.02999 26C7.26033 26 7.4812 25.9811 7.69892 25.9432C11.9522 25.2427 16.1709 22.9803 19.5754 19.5789C22.9768 16.1806 25.236 11.965 25.946 7.69903C26.1605 6.39587 25.7283 5.05485 24.788 4.10825Z" fill="#FF7F00"/>
</svg>
