<svg width="34" height="42" viewBox="0 0 34 42" fill="none" xmlns="http://www.w3.org/2000/svg">
<path d="M15.2167 39.557L15.2312 6.29698L2.91325 18.6149C2.60468 18.9235 2.18618 19.0969 1.74981 19.0969C1.31343 19.0969 0.894926 18.9235 0.586361 18.6149C0.277796 18.3064 0.104445 17.8879 0.104445 17.4515C0.104444 17.0151 0.277796 16.5966 0.586361 16.2881L15.7111 1.16328C16.0197 0.854712 16.4382 0.681361 16.8746 0.681361C17.311 0.681361 17.7295 0.854712 18.038 1.16328L33.1628 16.2881C33.4714 16.5966 33.6447 17.0151 33.6447 17.4515C33.6447 17.8879 33.4714 18.3064 33.1628 18.6149C32.8542 18.9235 32.4357 19.0969 31.9994 19.0969C31.563 19.0969 31.1445 18.9235 30.8359 18.6149L18.518 6.29698L18.5325 39.557C18.492 39.9685 18.2998 40.3503 17.9934 40.6281C17.6869 40.9058 17.2882 41.0596 16.8746 41.0596C16.461 41.0596 16.0622 40.9058 15.7558 40.6281C15.4494 40.3503 15.2572 39.9685 15.2167 39.557Z" fill="white"/>
</svg>
